Coordinates
version=1
nRows=11
nColumns=32
inDegrees=yes

Units are S.I. units (second, meters, Newtons, ...)
If the header above contains a line with 'inDegrees', this indicates whether rotational values are in degrees (yes) or radians (no).

endheader
time	pelvis_tilt	pelvis_list	pelvis_rotation	pelvis_tx	pelvis_ty	pelvis_tz	hip_flexion_r	hip_adduction_r	hip_rotation_r	knee_angle_r	knee_adduction_r	med_cond_adduction_r	lat_cond_adduction_r	patella_r_constrained_knee_angle	hip_flexion_l	hip_adduction_l	hip_rotation_l	knee_angle_l	knee_adduction_l	med_cond_adduction_l	lat_cond_adduction_l	patella_l_constrained_knee_angle	lumbar_extension	lumbar_bending	lumbar_rotation	ankle_angle_r	subtalar_angle_r	mtp_angle_r	ankle_angle_l	subtalar_angle_l	mtp_angle_l
      1.98000000	      4.35751456	      4.69445634	     -2.84849774	      1.35771177	      0.80394018	      0.15224376	      2.84614545	     -3.20889224	      5.40972274	    -63.51753559	      1.43364540	     -0.00000000	     -0.00000000	     -1.10859013	     12.89741919	      7.40445149	    -10.55649404	    -20.99327234	     -0.46306683	      0.00000000	      0.00000000	     -0.36640172	    -12.74369288	     -8.61833713	     -8.73247583	    -23.59025616	    -13.06172706	      0.00000000	      2.90190954	     -1.22846861	     -0.00000000
      1.98500000	      4.22760082	      4.74702518	     -2.57689541	      1.36338105	      0.80451640	      0.15157996	      4.33119711	     -3.21722816	      5.24348222	    -64.77710966	      1.41526699	     -0.00000000	     -0.00000000	     -1.13057384	     12.36476141	      7.57973844	    -10.07933947	    -20.59039450	     -0.31692775	     -0.00000000	     -0.00000000	     -0.35937018	    -12.76762735	     -8.63818615	     -8.96401072	    -22.75926055	    -13.18782497	     -0.00000000	      2.97028310	     -1.63878482	      0.00000000
      1.99000000	      4.19828434	      4.54296715	     -2.31057361	      1.36918790	      0.80518910	      0.15122458	      5.61250999	     -2.79846631	      4.93293639	    -65.81046902	      1.12157952	      0.00000000	      0.00000000	     -1.14860937	     11.93422668	      7.37867744	    -10.28451878	    -20.70713659	     -0.42106954	      0.00000000	      0.00000000	     -0.36140771	    -12.87019303	     -8.40833576	     -9.11473317	    -22.05562436	    -13.35449383	     -0.00000000	      3.77022821	     -0.60411623	     -0.00000000
      1.99500000	      4.10473953	      4.50250568	     -2.05810138	      1.37485577	      0.80583186	      0.15067243	      7.01729829	     -2.69834548	      4.79828346	    -66.81111302	      1.10668924	      0.00000000	      0.00000000	     -1.16607390	     11.36749399	      7.41869622	     -9.96317069	    -20.32751320	     -0.29926715	     -0.00000000	     -0.00000000	     -0.35478203	    -12.91681917	     -8.32315712	     -9.27853453	    -21.22328141	    -13.41029308	      0.00000000	      3.90483182	     -0.81065752	      0.00000000
      2.00000000	      4.07888713	      4.13549330	     -1.76718562	      1.38050443	      0.80647907	      0.15042577	      8.25541306	     -2.08962829	      4.69570879	    -67.60477956	      1.05210651	      0.00000000	      0.00000000	     -1.17992599	     10.99602866	      6.98760676	    -10.16879158	    -20.58425945	     -0.39263939	     -0.00000000	     -0.00000000	     -0.35926310	    -13.04305676	     -7.89812562	     -9.40315675	    -20.53288630	    -13.70989500	      0.00000000	      4.85002218	      0.57875148	     -0.00000000
      2.00500000	      4.00637913	      4.18350155	     -1.59905705	      1.38627121	      0.80716815	      0.14983088	      9.63641398	     -2.12775513	      4.34287686	    -68.39733660	      0.77548863	     -0.00000000	     -0.00000000	     -1.19375872	     10.27202754	      7.20236324	     -9.78573465	    -19.90004036	     -0.31107345	      0.00000000	      0.00000000	     -0.34732123	    -13.05889829	     -7.92188975	     -9.51617025	    -19.67791520	    -13.54382190	     -0.00000000	      4.76068428	     -0.08913018	     -0.00000000
      2.01000000	      4.00039082	      4.01367906	     -1.29978120	      1.39201304	      0.80791229	      0.14939587	     10.85520045	     -1.85028252	      3.92809221	    -69.00251076	      0.51383708	      0.00000000	      0.00000000	     -1.20432100	      9.62825116	      7.08930963	     -9.51824274	    -19.60756611	     -0.26855939	      0.00000000	      0.00000000	     -0.34221659	    -13.17668768	     -7.70457419	     -9.68025846	    -18.94413159	    -13.51027619	     -0.00000000	      5.08262477	      0.08517047	      0.00000000
      2.01500000	      3.99263854	      3.80273173	     -1.11111420	      1.39777011	      0.80860449	      0.14904901	     12.07067495	     -1.51432372	      3.68116076	    -69.50059917	      0.30894309	     -0.00000000	     -0.00000000	     -1.21301429	      9.02012942	      6.91820626	     -9.57044947	    -19.36093981	     -0.32374661	      0.00000000	      0.00000000	     -0.33791215	    -13.25030119	     -7.44505089	     -9.78522870	    -18.19813620	    -13.40317153	      0.00000000	      5.52791659	      0.59016951	     -0.00000000
      2.02000000	      4.00044583	      3.29178573	     -0.85679908	      1.40345495	      0.80922022	      0.14900486	     13.15130524	     -0.77455205	      3.78640850	    -69.77075492	      0.53596015	      0.00000000	      0.00000000	     -1.21772939	      8.68046710	      6.25254971	    -10.03710117	    -19.77538156	     -0.43282543	      0.00000000	      0.00000000	     -0.34514552	    -13.36038811	     -6.87462310	     -9.80679376	    -17.53933573	    -13.85338468	      0.00000000	      6.66341448	      2.32880223	      0.00000000
      2.02500000	      4.07871762	      2.94283581	     -0.48219254	      1.40930419	      0.80998931	      0.14859150	     14.16012965	     -0.32172178	      3.12224024	    -69.96691749	      0.12291812	      0.00000000	      0.00000000	     -1.22115308	      8.05803528	      5.90640775	    -10.01019650	    -19.73015676	     -0.51291884	     -0.00000000	     -0.00000000	     -0.34435620	    -13.50726189	     -6.46286616	    -10.09192822	    -16.81799932	    -13.57518665	      0.00000000	      7.27566970	      3.17747114	      0.00000000
      2.03000000	      4.17622223	      2.77139579	     -0.23199035	      1.41518105	      0.81080632	      0.14812503	     15.16540376	     -0.09341983	      2.55849274	    -70.10969660	     -0.30588628	      0.00000000	      0.00000000	     -1.22364504	      7.20031771	      5.86446286	     -9.80576932	    -19.19944631	     -0.60834879	      0.00000000	      0.00000000	     -0.33509355	    -13.69476702	     -6.24606166	    -10.23638493	    -16.06535964	    -13.20173679	      0.00000000	      7.51332092	      3.31791269	     -0.00000000
